<svg width="1159" height="256" viewBox="0 0 1159 256" fill="none" xmlns="http://www.w3.org/2000/svg">
<g clip-path="url(#clip0_3_829)">
<path d="M219.441 103.764C219.796 104.55 219.796 105.45 219.441 106.236L190.483 170.265C189.153 173.207 184.75 172.258 184.75 169.029L184.75 40.9713C184.75 37.7419 189.153 36.7926 190.483 39.7351L219.441 103.764Z" fill="#006CB8"/>
<path d="M9 40C9 38.8954 9.89543 38 11 38L188 38C189.105 38 190 38.8954 190 40V170C190 171.105 189.105 172 188 172H11C9.89543 172 9 171.105 9 170V105V40Z" fill="#006CB8"/>
<path d="M406.441 103.764C406.796 104.55 406.796 105.45 406.441 106.236L377.483 170.265C376.153 173.207 371.75 172.258 371.75 169.029L371.75 40.9713C371.75 37.7419 376.153 36.7926 377.483 39.7351L406.441 103.764Z" fill="#006CB8"/>
<path d="M197.261 40.8173C196.669 39.4942 197.637 38 199.087 38L375 38C376.105 38 377 38.8954 377 40V170C377 171.105 376.105 172 375 172H199.087C197.637 172 196.669 170.506 197.261 169.183L225.634 105.817C225.867 105.297 225.867 104.703 225.634 104.183L197.261 40.8173Z" fill="#006CB8"/>
<path d="M780.441 103.764C780.796 104.55 780.796 105.45 780.441 106.236L751.483 170.265C750.153 173.207 745.75 172.258 745.75 169.029L745.75 40.9713C745.75 37.7419 750.153 36.7926 751.483 39.7351L780.441 103.764Z" fill="#006CB8"/>
<path d="M571.261 40.8173C570.669 39.4942 571.637 38 573.087 38L749 38C750.105 38 751 38.8954 751 40V170C751 171.105 750.105 172 749 172H573.087C571.637 172 570.669 170.506 571.261 169.183L599.634 105.817C599.867 105.297 599.867 104.703 599.634 104.183L571.261 40.8173Z" fill="#006CB8"/>
<line x1="578" y1="12" x2="578" y2="244" stroke="#626262" stroke-width="2" stroke-dasharray="4 2"/>
<line x1="1151" y1="12" x2="1151" y2="244" stroke="#626262" stroke-width="2" stroke-dasharray="4 2"/>
<path d="M593.441 103.764C593.796 104.55 593.796 105.45 593.441 106.236L564.483 170.265C563.153 173.207 558.75 172.258 558.75 169.029L558.75 40.9713C558.75 37.7419 563.153 36.7926 564.483 39.7351L593.441 103.764Z" fill="#006CB8"/>
<path d="M384.261 40.8173C383.669 39.4942 384.637 38 386.087 38L562 38C563.105 38 564 38.8954 564 40V170C564 171.105 563.105 172 562 172H386.087C384.637 172 383.669 170.506 384.261 169.183L412.634 105.817C412.867 105.297 412.867 104.703 412.634 104.183L384.261 40.8173Z" fill="#006CB8"/>
<path d="M967.441 103.764C967.796 104.55 967.796 105.45 967.441 106.236L938.483 170.265C937.153 173.207 932.75 172.258 932.75 169.029L932.75 40.9713C932.75 37.7419 937.153 36.7926 938.483 39.7351L967.441 103.764Z" fill="#006CB8"/>
<path d="M758.261 40.8173C757.669 39.4942 758.637 38 760.087 38L936 38C937.105 38 938 38.8954 938 40V170C938 171.105 937.105 172 936 172H760.087C758.637 172 757.669 170.506 758.261 169.183L786.634 105.817C786.867 105.297 786.867 104.703 786.634 104.183L758.261 40.8173Z" fill="#006CB8"/>
<path d="M945.261 40.8173C944.669 39.4942 945.637 38 947.087 38L1138 38C1139.1 38 1140 38.8954 1140 40V170C1140 171.105 1139.1 172 1138 172H947.087C945.637 172 944.669 170.506 945.261 169.183L973.634 105.817C973.867 105.297 973.867 104.703 973.634 104.183L945.261 40.8173Z" fill="#006CB8"/>
<rect x="600" y="189" width="526" height="51" fill="#D9D9D9"/>
<path d="M579.431 215.09C579.174 214.738 579.174 214.262 579.431 213.91L603.442 181.035C604.013 180.253 605.25 180.657 605.25 181.625L605.25 247.375C605.25 248.343 604.013 248.747 603.442 247.965L579.431 215.09Z" fill="#D9D9D9"/>
<path d="M1149.57 213.91C1149.83 214.262 1149.83 214.738 1149.57 215.09L1125.56 247.965C1124.99 248.747 1123.75 248.343 1123.75 247.375L1123.75 181.625C1123.75 180.657 1124.99 180.253 1125.56 181.035L1149.57 213.91Z" fill="#D9D9D9"/>
</g>
<defs>
<clipPath id="clip0_3_829">
<rect width="1159" height="256" fill="white"/>
</clipPath>
</defs>
</svg>
