<svg width="1159" height="256" viewBox="0 0 1159 256" fill="none" xmlns="http://www.w3.org/2000/svg">
<g clip-path="url(#clip0_3_829)">
<path d="M219.441 103.764C219.796 104.55 219.796 105.45 219.441 106.236L190.483 170.265C189.153 173.207 184.75 172.258 184.75 169.029L184.75 40.9713C184.75 37.7419 189.153 36.7926 190.483 39.7351L219.441 103.764Z" fill="#EB6321"/>
<path d="M9 40C9 38.8954 9.89543 38 11 38L188 38C189.105 38 190 38.8954 190 40V170C190 171.105 189.105 172 188 172H11C9.89543 172 9 171.105 9 170V105V40Z" fill="#EB6321"/>
<path d="M406.441 103.764C406.796 104.55 406.796 105.45 406.441 106.236L377.483 170.265C376.153 173.207 371.75 172.258 371.75 169.029L371.75 40.9713C371.75 37.7419 376.153 36.7926 377.483 39.7351L406.441 103.764Z" fill="#EB6321"/>
<path d="M197.261 40.8173C196.669 39.4942 197.637 38 199.087 38L375 38C376.105 38 377 38.8954 377 40V170C377 171.105 376.105 172 375 172H199.087C197.637 172 196.669 170.506 197.261 169.183L225.634 105.817C225.867 105.297 225.867 104.703 225.634 104.183L197.261 40.8173Z" fill="#EB6321"/>
<path d="M780.441 103.764C780.796 104.55 780.796 105.45 780.441 106.236L751.483 170.265C750.153 173.207 745.75 172.258 745.75 169.029L745.75 40.9713C745.75 37.7419 750.153 36.7926 751.483 39.7351L780.441 103.764Z" fill="#EB6321"/>
<path d="M571.261 40.8173C570.669 39.4942 571.637 38 573.087 38L749 38C750.105 38 751 38.8954 751 40V170C751 171.105 750.105 172 749 172H573.087C571.637 172 570.669 170.506 571.261 169.183L599.634 105.817C599.867 105.297 599.867 104.703 599.634 104.183L571.261 40.8173Z" fill="#EB6321"/>
<line x1="578" y1="12" x2="578" y2="244" stroke="#626262" stroke-width="2" stroke-dasharray="4 2"/>
<line x1="1151" y1="12" x2="1151" y2="244" stroke="#626262" stroke-width="2" stroke-dasharray="4 2"/>
<path d="M593.441 103.764C593.796 104.55 593.796 105.45 593.441 106.236L564.483 170.265C563.153 173.207 558.75 172.258 558.75 169.029L558.75 40.9713C558.75 37.7419 563.153 36.7926 564.483 39.7351L593.441 103.764Z" fill="#EB6321"/>
<path d="M384.261 40.8173C383.669 39.4942 384.637 38 386.087 38L562 38C563.105 38 564 38.8954 564 40V170C564 171.105 563.105 172 562 172H386.087C384.637 172 383.669 170.506 384.261 169.183L412.634 105.817C412.867 105.297 412.867 104.703 412.634 104.183L384.261 40.8173Z" fill="#EB6321"/>
<path d="M464.556 101.344H469.542V102.928H464.556V101.344ZM464.556 104.296H469.542V105.826H464.556V104.296ZM464.556 107.302H469.542V108.904H464.556V107.302ZM472.35 105.268H479.136V107.086H472.35V105.268ZM465.438 98.392H468.282V100.012H465.438V98.392ZM471 97.636H477.678V99.4H471V97.636ZM471 108.706H479.478V110.578H471V108.706ZM474.366 103.648H476.418V113.566H474.366V103.648ZM466.5 102.172H467.94V107.896H466.5V102.172ZM477.102 97.636H479.028C479.028 97.636 479.01 98.086 478.992 98.32C478.902 101.218 478.74 102.46 478.344 102.928C478.056 103.306 477.714 103.45 477.246 103.522C476.85 103.576 476.148 103.594 475.428 103.558C475.392 103.018 475.212 102.298 474.942 101.83C475.518 101.884 475.986 101.902 476.22 101.902C476.454 101.902 476.598 101.866 476.724 101.704C476.922 101.47 477.03 100.498 477.102 97.888V97.636ZM471.99 103.774L473.754 104.116C473.43 105.772 472.836 107.428 472.134 108.49C471.774 108.238 470.982 107.842 470.55 107.644C471.252 106.69 471.738 105.214 471.99 103.774ZM465.006 96.7L466.932 97.114C466.284 99.598 465.168 102.028 463.872 103.558C463.548 103.216 462.774 102.568 462.342 102.28C463.566 100.948 464.52 98.842 465.006 96.7ZM463.764 101.344H465.492V106.114C465.492 108.418 465.258 111.622 463.944 113.656C463.62 113.368 462.846 112.882 462.432 112.702C463.656 110.83 463.764 108.148 463.764 106.114V101.344ZM468.966 101.344H470.73V111.55C470.73 112.396 470.568 112.936 470.028 113.26C469.47 113.566 468.732 113.602 467.634 113.602C467.562 113.098 467.274 112.27 467.022 111.784C467.724 111.82 468.444 111.82 468.66 111.802C468.876 111.802 468.966 111.73 468.966 111.514V101.344ZM473.16 98.23H475.086C474.87 100.858 474.258 102.874 471.576 104.062C471.36 103.612 470.874 102.91 470.442 102.586C472.602 101.704 472.98 100.174 473.16 98.23ZM467.778 98.392H468.192L468.462 98.302L469.686 99.076C469.29 100.21 468.588 101.632 468.03 102.532C467.688 102.28 467.094 101.92 466.716 101.722C467.112 100.894 467.562 99.562 467.778 98.716V98.392ZM488.874 104.872L490.602 103.99C491.538 105.232 492.564 106.906 492.96 108.058L491.07 109.03C490.746 107.914 489.792 106.168 488.874 104.872ZM489.468 99.778H495.93V101.812H489.468V99.778ZM495.012 99.778H497.1C497.1 99.778 497.1 100.498 497.082 100.768C496.812 108.706 496.578 111.568 495.822 112.522C495.318 113.206 494.832 113.404 494.076 113.53C493.41 113.62 492.312 113.62 491.25 113.566C491.214 112.954 490.926 112.018 490.53 111.406C491.664 111.496 492.708 111.496 493.176 111.496C493.536 111.496 493.752 111.442 493.95 111.19C494.544 110.578 494.796 107.536 495.012 100.21V99.778ZM489.576 96.7L491.808 97.186C491.052 99.868 489.81 102.514 488.442 104.152C488.01 103.792 487.056 103.144 486.516 102.838C487.884 101.416 488.982 99.058 489.576 96.7ZM483.24 96.736L485.148 97.402C484.41 98.806 483.564 100.408 482.862 101.398L481.404 100.804C482.052 99.724 482.826 97.996 483.24 96.736ZM485.4 98.86L487.218 99.616C485.886 101.686 484.122 104.188 482.736 105.718L481.422 105.052C482.808 103.432 484.446 100.786 485.4 98.86ZM480.468 101.002L481.476 99.508C482.448 100.336 483.564 101.488 484.032 102.28L482.934 103.972C482.484 103.108 481.386 101.866 480.468 101.002ZM484.95 103.198L486.48 102.532C487.2 103.738 487.92 105.304 488.154 106.348L486.516 107.104C486.3 106.078 485.634 104.44 484.95 103.198ZM480.45 104.656C482.124 104.602 484.608 104.494 487.02 104.368V106.078C484.752 106.258 482.412 106.42 480.63 106.528L480.45 104.656ZM485.274 107.716L486.858 107.194C487.326 108.274 487.812 109.678 488.028 110.596L486.336 111.208C486.174 110.272 485.706 108.814 485.274 107.716ZM481.224 107.302L483.006 107.608C482.826 109.336 482.43 111.136 481.908 112.288C481.53 112.054 480.72 111.676 480.27 111.496C480.792 110.434 481.08 108.832 481.224 107.302ZM483.312 105.61H485.238V113.638H483.312V105.61ZM499.116 101.884H514.902V105.826H512.778V103.756H501.132V105.826H499.116V101.884ZM501.726 105.142H511.212V107.122H501.726V105.142ZM512.778 96.61L514.236 98.356C510.168 99.148 504.552 99.544 499.764 99.688C499.728 99.148 499.476 98.32 499.278 97.852C504.048 97.69 509.466 97.258 512.778 96.61ZM500.862 100.03L502.752 99.508C503.166 100.156 503.616 101.02 503.778 101.614L501.798 102.208C501.654 101.614 501.24 100.714 500.862 100.03ZM505.614 99.652L507.522 99.22C507.9 99.94 508.26 100.912 508.35 101.56L506.334 102.046C506.262 101.416 505.956 100.408 505.614 99.652ZM511.338 99.184L513.624 99.724C512.994 100.84 512.274 102.01 511.734 102.784L509.97 102.262C510.456 101.398 511.032 100.12 511.338 99.184ZM510.42 105.142H510.87L511.248 105.07L512.706 105.934C510.564 110.65 505.632 112.648 499.962 113.458C499.746 112.918 499.134 111.964 498.702 111.514C504.246 110.956 508.8 109.318 510.42 105.484V105.142ZM503.85 106.6C505.866 109.336 509.988 110.902 515.226 111.388C514.776 111.874 514.182 112.81 513.912 113.422C508.494 112.72 504.48 110.83 501.96 107.374L503.85 106.6ZM522.3 100.606H533.424V102.802H522.3V100.606ZM529.194 96.916H531.426V111.01C531.426 112.378 531.102 112.954 530.238 113.278C529.356 113.62 527.988 113.656 525.99 113.638C525.882 113.044 525.486 112.072 525.162 111.496C526.566 111.568 528.132 111.568 528.564 111.55C529.014 111.532 529.194 111.406 529.194 110.992V96.916ZM523.11 104.98L525.018 104.08C525.828 105.394 526.962 107.176 527.502 108.274L525.45 109.318C524.982 108.22 523.92 106.366 523.11 104.98ZM518.988 102.01L521.166 99.832L521.184 99.868V113.584H518.988V102.01ZM520.788 96.808L522.912 97.492C521.706 100.624 519.762 103.918 517.728 105.988C517.494 105.448 516.846 104.26 516.45 103.72C518.178 102.082 519.816 99.454 520.788 96.808Z" fill="white"/>
<path d="M967.441 103.764C967.796 104.55 967.796 105.45 967.441 106.236L938.483 170.265C937.153 173.207 932.75 172.258 932.75 169.029L932.75 40.9713C932.75 37.7419 937.153 36.7926 938.483 39.7351L967.441 103.764Z" fill="#EB6321"/>
<path d="M758.261 40.8173C757.669 39.4942 758.637 38 760.087 38L936 38C937.105 38 938 38.8954 938 40V170C938 171.105 937.105 172 936 172H760.087C758.637 172 757.669 170.506 758.261 169.183L786.634 105.817C786.867 105.297 786.867 104.703 786.634 104.183L758.261 40.8173Z" fill="#EB6321"/>
<path d="M945.393 40.8726C944.749 39.5443 945.716 38 947.192 38L1138 38C1139.1 38 1140 38.8954 1140 40V170C1140 171.105 1139.1 172 1138 172H947.192C945.716 172 944.749 170.456 945.393 169.127L976.063 105.873C976.33 105.322 976.33 104.678 976.063 104.127L945.393 40.8726Z" fill="#EB6321"/>
<path d="M81.128 94.376H83.36C83.36 94.376 83.342 95.006 83.306 95.294C83.018 99.272 82.694 101.018 82.046 101.72C81.542 102.278 81.038 102.44 80.246 102.53C79.634 102.602 78.536 102.584 77.42 102.566C77.366 101.864 77.042 100.91 76.61 100.298C77.708 100.388 78.86 100.406 79.346 100.406C79.706 100.406 79.922 100.37 80.156 100.19C80.606 99.812 80.894 98.228 81.11 94.682L81.128 94.376ZM76.07 90.47H78.284C77.96 92.72 77.528 95.456 77.15 97.202L74.99 96.86C75.386 95.168 75.836 92.558 76.07 90.47ZM87.284 85.988H89.462V102.62H87.284V85.988ZM76.538 94.376H81.758V96.374H76.268L76.538 94.376ZM76.826 90.47H81.092V88.418H75.638V86.42H83.216V92.486H76.826V90.47ZM94.556 93.386C95.096 93.296 95.924 93.08 96.464 92.9C97.706 92.54 100.748 91.496 102.926 91.496C105.788 91.496 107.696 93.188 107.696 95.924C107.696 99.164 104.816 101.396 99.11 101.738L98.156 99.524C102.26 99.416 105.302 98.318 105.302 95.87C105.302 94.538 104.294 93.584 102.71 93.584C100.622 93.584 97.04 95.078 95.492 95.726L94.556 93.386ZM118.91 88.58H127.37V90.38H120.818V97.094H118.91V88.58ZM117.524 97.202C118.658 96.626 120.404 95.582 122.078 94.574L122.672 96.122C121.25 97.094 119.702 98.102 118.442 98.912L117.524 97.202ZM111.296 87.644H118.244V89.516H111.296V87.644ZM110.666 91.028H118.496V92.936H110.666V91.028ZM114.878 94.934H118.262V96.806H114.878V94.934ZM113.798 85.736H115.778V92.18H113.798V85.736ZM114.158 92.198H116.102V100.37H114.158V92.198ZM113.042 95.762C114.158 99.542 116.462 100.1 120.278 100.1C121.556 100.1 126.11 100.1 127.64 100.028C127.316 100.514 126.938 101.522 126.812 102.17H120.26C115.508 102.17 112.916 101.27 111.512 96.248L113.042 95.762ZM121.898 85.718H123.914C123.86 91.73 124.832 97.598 125.876 97.598C126.128 97.598 126.272 96.914 126.308 95.348C126.704 95.78 127.316 96.176 127.784 96.392C127.496 98.894 126.938 99.56 125.642 99.56C122.924 99.542 122.006 92.63 121.898 85.718ZM124.166 86.564L125.624 85.826C126.2 86.438 126.884 87.32 127.172 87.896L125.642 88.742C125.372 88.148 124.724 87.212 124.166 86.564ZM111.386 93.962L113.186 94.07C113.258 96.95 113.06 100.154 111.602 102.584C111.314 102.134 110.63 101.468 110.18 101.27C111.368 99.218 111.458 96.41 111.386 93.962ZM125.516 91.1L127.172 91.55C126.164 95.06 124.328 98.084 121.862 99.794C121.574 99.344 120.98 98.66 120.584 98.318C122.87 96.914 124.652 94.088 125.516 91.1ZM134.678 86.726C134.57 87.482 134.48 88.418 134.444 89.138C134.354 91.082 134.228 95.096 134.228 97.328C134.228 99.146 135.308 99.74 136.712 99.74C139.682 99.74 141.554 98.03 142.868 96.068L144.506 98.066C143.336 99.794 140.78 102.188 136.676 102.188C133.724 102.188 131.834 100.892 131.834 97.814C131.834 95.402 131.996 90.686 131.996 89.138C131.996 88.274 131.924 87.41 131.78 86.708L134.678 86.726ZM81.992 116.232H84.242V122.28C84.242 123.396 83.972 123.972 83.126 124.26C82.28 124.566 81.11 124.602 79.562 124.602C79.436 123.99 79.076 123.09 78.77 122.514C79.832 122.568 81.182 122.568 81.542 122.55C81.884 122.532 81.992 122.478 81.992 122.208V116.232ZM76.574 108.726H87.626V110.706H76.574V108.726ZM86.816 108.726H87.392L87.878 108.6L89.426 109.824C87.896 111.336 85.772 113.046 83.846 114.108C83.558 113.676 82.91 113.01 82.55 112.668C84.116 111.786 86.006 110.22 86.816 109.194V108.726ZM74.828 114.594H89.534V116.646H74.828V114.594ZM79.094 113.01L80.174 111.39C82.136 112.056 85.232 113.19 86.798 113.892L85.646 115.746C84.188 115.026 81.164 113.784 79.094 113.01ZM88.814 114.594H89.228L89.606 114.45L91.37 115.206C90.578 116.898 89.498 118.716 88.472 119.922L86.636 118.86C87.392 117.852 88.31 116.268 88.814 114.954V114.594ZM96.014 113.154H105.968V115.206H96.014V113.154ZM100.982 117.474H107.066V119.49H100.982V117.474ZM99.848 114.342H102.116V123.036L99.848 122.766V114.342ZM95.546 116.214L97.814 116.448C97.346 120.102 96.23 122.964 94.178 124.728C93.818 124.35 92.9 123.576 92.396 123.252C94.34 121.812 95.24 119.31 95.546 116.214ZM97.292 118.464C98.444 121.776 100.964 122.28 104.168 122.28C105.122 122.28 108.128 122.28 109.334 122.244C109.028 122.748 108.668 123.792 108.578 124.44H104.042C99.884 124.44 97.076 123.594 95.528 119.058L97.292 118.464ZM99.812 107.736H102.116V111.03H99.812V107.736ZM93.26 109.554H108.74V114.072H106.508V111.606H95.384V114.072H93.26V109.554ZM116.57 110.49H126.074V116.646H123.968V112.506H116.57V110.49ZM115.67 115.782H127.442V117.816H115.67V115.782ZM119.576 107.718H121.736V114.018C121.736 117.942 121.232 122.064 116.534 124.674C116.138 124.224 115.292 123.486 114.734 123.144C119.126 120.84 119.576 117.42 119.576 114V107.718ZM122.708 116.916C123.482 119.544 125.12 121.74 127.622 122.766C127.118 123.198 126.434 124.062 126.11 124.656C123.338 123.306 121.682 120.75 120.71 117.402L122.708 116.916ZM111.53 109.392L112.7 107.808C113.816 108.24 115.274 108.978 115.994 109.59L114.752 111.354C114.086 110.724 112.664 109.896 111.53 109.392ZM110.486 114.288L111.656 112.668C112.772 113.064 114.266 113.784 115.004 114.378L113.762 116.178C113.078 115.566 111.638 114.774 110.486 114.288ZM111.008 123.018C111.908 121.65 113.186 119.364 114.176 117.258L115.832 118.608C114.95 120.516 113.888 122.604 112.88 124.386L111.008 123.018ZM132.014 113.154H141.968V115.206H132.014V113.154ZM136.982 117.474H143.066V119.49H136.982V117.474ZM135.848 114.342H138.116V123.036L135.848 122.766V114.342ZM131.546 116.214L133.814 116.448C133.346 120.102 132.23 122.964 130.178 124.728C129.818 124.35 128.9 123.576 128.396 123.252C130.34 121.812 131.24 119.31 131.546 116.214ZM133.292 118.464C134.444 121.776 136.964 122.28 140.168 122.28C141.122 122.28 144.128 122.28 145.334 122.244C145.028 122.748 144.668 123.792 144.578 124.44H140.042C135.884 124.44 133.076 123.594 131.528 119.058L133.292 118.464ZM135.812 107.736H138.116V111.03H135.812V107.736ZM129.26 109.554H144.74V114.072H142.508V111.606H131.384V114.072H129.26V109.554Z" fill="white"/>
<path d="M260.556 101.344H265.542V102.928H260.556V101.344ZM260.556 104.296H265.542V105.826H260.556V104.296ZM260.556 107.302H265.542V108.904H260.556V107.302ZM268.35 105.268H275.136V107.086H268.35V105.268ZM261.438 98.392H264.282V100.012H261.438V98.392ZM267 97.636H273.678V99.4H267V97.636ZM267 108.706H275.478V110.578H267V108.706ZM270.366 103.648H272.418V113.566H270.366V103.648ZM262.5 102.172H263.94V107.896H262.5V102.172ZM273.102 97.636H275.028C275.028 97.636 275.01 98.086 274.992 98.32C274.902 101.218 274.74 102.46 274.344 102.928C274.056 103.306 273.714 103.45 273.246 103.522C272.85 103.576 272.148 103.594 271.428 103.558C271.392 103.018 271.212 102.298 270.942 101.83C271.518 101.884 271.986 101.902 272.22 101.902C272.454 101.902 272.598 101.866 272.724 101.704C272.922 101.47 273.03 100.498 273.102 97.888V97.636ZM267.99 103.774L269.754 104.116C269.43 105.772 268.836 107.428 268.134 108.49C267.774 108.238 266.982 107.842 266.55 107.644C267.252 106.69 267.738 105.214 267.99 103.774ZM261.006 96.7L262.932 97.114C262.284 99.598 261.168 102.028 259.872 103.558C259.548 103.216 258.774 102.568 258.342 102.28C259.566 100.948 260.52 98.842 261.006 96.7ZM259.764 101.344H261.492V106.114C261.492 108.418 261.258 111.622 259.944 113.656C259.62 113.368 258.846 112.882 258.432 112.702C259.656 110.83 259.764 108.148 259.764 106.114V101.344ZM264.966 101.344H266.73V111.55C266.73 112.396 266.568 112.936 266.028 113.26C265.47 113.566 264.732 113.602 263.634 113.602C263.562 113.098 263.274 112.27 263.022 111.784C263.724 111.82 264.444 111.82 264.66 111.802C264.876 111.802 264.966 111.73 264.966 111.514V101.344ZM269.16 98.23H271.086C270.87 100.858 270.258 102.874 267.576 104.062C267.36 103.612 266.874 102.91 266.442 102.586C268.602 101.704 268.98 100.174 269.16 98.23ZM263.778 98.392H264.192L264.462 98.302L265.686 99.076C265.29 100.21 264.588 101.632 264.03 102.532C263.688 102.28 263.094 101.92 262.716 101.722C263.112 100.894 263.562 99.562 263.778 98.716V98.392ZM284.874 104.872L286.602 103.99C287.538 105.232 288.564 106.906 288.96 108.058L287.07 109.03C286.746 107.914 285.792 106.168 284.874 104.872ZM285.468 99.778H291.93V101.812H285.468V99.778ZM291.012 99.778H293.1C293.1 99.778 293.1 100.498 293.082 100.768C292.812 108.706 292.578 111.568 291.822 112.522C291.318 113.206 290.832 113.404 290.076 113.53C289.41 113.62 288.312 113.62 287.25 113.566C287.214 112.954 286.926 112.018 286.53 111.406C287.664 111.496 288.708 111.496 289.176 111.496C289.536 111.496 289.752 111.442 289.95 111.19C290.544 110.578 290.796 107.536 291.012 100.21V99.778ZM285.576 96.7L287.808 97.186C287.052 99.868 285.81 102.514 284.442 104.152C284.01 103.792 283.056 103.144 282.516 102.838C283.884 101.416 284.982 99.058 285.576 96.7ZM279.24 96.736L281.148 97.402C280.41 98.806 279.564 100.408 278.862 101.398L277.404 100.804C278.052 99.724 278.826 97.996 279.24 96.736ZM281.4 98.86L283.218 99.616C281.886 101.686 280.122 104.188 278.736 105.718L277.422 105.052C278.808 103.432 280.446 100.786 281.4 98.86ZM276.468 101.002L277.476 99.508C278.448 100.336 279.564 101.488 280.032 102.28L278.934 103.972C278.484 103.108 277.386 101.866 276.468 101.002ZM280.95 103.198L282.48 102.532C283.2 103.738 283.92 105.304 284.154 106.348L282.516 107.104C282.3 106.078 281.634 104.44 280.95 103.198ZM276.45 104.656C278.124 104.602 280.608 104.494 283.02 104.368V106.078C280.752 106.258 278.412 106.42 276.63 106.528L276.45 104.656ZM281.274 107.716L282.858 107.194C283.326 108.274 283.812 109.678 284.028 110.596L282.336 111.208C282.174 110.272 281.706 108.814 281.274 107.716ZM277.224 107.302L279.006 107.608C278.826 109.336 278.43 111.136 277.908 112.288C277.53 112.054 276.72 111.676 276.27 111.496C276.792 110.434 277.08 108.832 277.224 107.302ZM279.312 105.61H281.238V113.638H279.312V105.61ZM295.746 99.112H310.344V109.822H308.094V101.182H297.888V109.93H295.746V99.112ZM297.15 103.018H309.156V104.998H297.15V103.018ZM297.15 106.906H309.192V108.976H297.15V106.906ZM301.812 96.718H304.062V113.62H301.812V96.718ZM318.678 97.726C318.57 98.482 318.48 99.418 318.444 100.138C318.354 102.082 318.228 106.096 318.228 108.328C318.228 110.146 319.308 110.74 320.712 110.74C323.682 110.74 325.554 109.03 326.868 107.068L328.506 109.066C327.336 110.794 324.78 113.188 320.676 113.188C317.724 113.188 315.834 111.892 315.834 108.814C315.834 106.402 315.996 101.686 315.996 100.138C315.996 99.274 315.924 98.41 315.78 97.708L318.678 97.726ZM337.272 97.474H341.07V99.508H337.272V97.474ZM339.99 97.474H342.258C342.528 102.604 343.608 106.942 347.37 108.85C346.866 109.192 346.074 109.984 345.678 110.488C341.844 108.202 340.656 103.666 340.332 98.428H339.99V97.474ZM339.918 101.218L342.15 101.542C341.358 105.592 339.756 108.652 337.092 110.506C336.768 110.092 335.922 109.246 335.436 108.886C337.956 107.374 339.342 104.692 339.918 101.218ZM334.986 103.738V110.362H332.88V105.736H330.774V103.738H334.986ZM334.986 109.426C335.706 110.614 337.074 111.136 338.946 111.208C341.052 111.298 345.138 111.244 347.568 111.046C347.334 111.55 346.974 112.594 346.884 113.242C344.706 113.35 341.07 113.386 338.91 113.296C336.696 113.206 335.202 112.684 334.032 111.28C333.24 111.982 332.43 112.666 331.458 113.458L330.396 111.208C331.206 110.704 332.178 110.074 333.006 109.426H334.986ZM330.81 98.428L332.412 97.132C333.492 97.888 334.806 99.022 335.436 99.868L333.708 101.29C333.168 100.444 331.872 99.238 330.81 98.428ZM351.834 98.392C352.32 98.428 352.95 98.464 353.328 98.464C354.372 98.464 356.28 98.392 357.108 98.32C357.558 98.284 358.026 98.176 358.35 98.05L359.772 99.184C359.538 99.454 359.322 99.688 359.178 99.922C358.566 100.948 357.594 103.27 356.784 105.142C356.064 106.798 355.2 108.94 354.462 110.074C353.742 111.172 352.896 111.658 351.654 111.658C350.088 111.658 348.9 110.578 348.9 108.742C348.9 105.862 351.654 103.648 355.506 103.648C359.7 103.648 363.372 105.88 365.262 107.176L364.218 109.678C362.004 107.716 358.836 105.664 355.128 105.664C352.5 105.664 350.988 107.086 350.988 108.4C350.988 108.994 351.33 109.3 351.762 109.3C352.122 109.3 352.356 109.138 352.698 108.688C353.292 107.806 353.94 106.15 354.588 104.728C355.218 103.306 355.956 101.542 356.496 100.426C355.776 100.444 354.21 100.498 353.4 100.552C353.022 100.57 352.392 100.642 351.924 100.696L351.834 98.392ZM363.678 102.64C363.426 107.752 362.418 111.064 358.116 113.296L356.19 111.73C360.636 109.822 361.176 106.456 361.338 104.35C361.374 103.648 361.392 102.928 361.32 102.37L363.678 102.64Z" fill="white"/>
<path d="M648.28 97.33H655.732V104.458H648.136V102.64H653.626V99.148H648.28V97.33ZM647.002 97.33H649.09V108.976H647.002V97.33ZM648.208 100.084H654.292V101.65H648.208V100.084ZM645.868 108.508C647.398 108.256 649.702 107.788 651.916 107.32L652.078 109.174C650.044 109.678 647.902 110.164 646.21 110.56L645.868 108.508ZM652.24 103.72C652.996 106.204 654.616 108.058 657.316 108.814C656.848 109.246 656.236 110.092 655.948 110.668C652.96 109.588 651.34 107.302 650.422 104.062L652.24 103.72ZM655.462 104.098L657.118 105.43C655.984 106.168 654.742 106.942 653.788 107.41L652.528 106.294C653.464 105.754 654.724 104.8 655.462 104.098ZM644.986 103.738V110.362H642.88V105.736H640.774V103.738H644.986ZM644.986 109.426C645.706 110.614 647.074 111.136 648.946 111.208C651.052 111.298 655.138 111.244 657.568 111.046C657.334 111.55 656.974 112.594 656.884 113.242C654.706 113.35 651.07 113.386 648.91 113.296C646.696 113.206 645.202 112.684 644.032 111.28C643.24 111.982 642.43 112.666 641.458 113.458L640.396 111.208C641.206 110.704 642.178 110.074 643.006 109.426H644.986ZM640.864 98.464L642.466 97.168C643.546 97.924 644.878 99.058 645.49 99.904L643.78 101.326C643.24 100.48 641.944 99.274 640.864 98.464ZM660.178 99.094H673.948V101.272H660.178V99.094ZM658.792 103.828H675.244V106.006H658.792V103.828ZM665.758 96.7H668.062V105.052H665.758V96.7ZM664.174 105.214L666.766 105.88C665.848 108.022 664.714 110.38 663.76 111.928L661.762 111.28C662.662 109.624 663.652 107.122 664.174 105.214ZM659.476 110.758C662.986 110.632 668.35 110.362 673.138 110.092L673.066 112.252C668.35 112.576 663.256 112.882 659.8 113.062L659.476 110.758ZM669.178 107.842L671.23 106.924C672.778 108.706 674.398 111.046 675.208 112.684L673.03 113.8C672.328 112.162 670.654 109.66 669.178 107.842ZM677.404 99.868H692.668V101.992H677.404V99.868ZM676.81 110.758H693.208V112.918H676.81V110.758ZM683.83 96.718H686.098V101.056H683.83V96.718ZM687.898 102.622L690.382 103.054C689.68 106.024 688.708 109.318 687.862 111.442L685.756 110.974C686.602 108.778 687.484 105.286 687.898 102.622ZM679.726 103.216L681.778 102.676C682.642 104.908 683.308 107.698 683.488 109.606L681.274 110.2C681.148 108.328 680.5 105.412 679.726 103.216ZM695.656 110.974C698.878 110.884 703.882 110.704 708.418 110.506L708.346 112.486C703.936 112.738 699.184 112.954 695.944 113.08L695.656 110.974ZM695.566 105.61H710.542V107.626H695.566V105.61ZM698.77 102.154H707.212V104.134H698.77V102.154ZM699.976 106.924L702.442 107.608C701.596 109.3 700.624 111.172 699.814 112.378L697.924 111.748C698.662 110.434 699.526 108.436 699.976 106.924ZM704.44 108.778L706.348 107.788C707.968 109.174 709.642 111.064 710.47 112.432L708.472 113.638C707.716 112.27 705.988 110.218 704.44 108.778ZM702.982 98.824C701.524 100.876 698.716 103.18 695.728 104.602C695.476 104.08 694.9 103.27 694.45 102.802C697.528 101.452 700.408 98.878 701.74 96.754H704.026C705.934 99.4 708.796 101.452 711.658 102.478C711.136 103.018 710.65 103.792 710.254 104.44C707.554 103.18 704.512 100.912 702.982 98.824ZM716.662 99.148C716.536 99.778 716.446 100.84 716.446 101.344C716.446 102.514 716.446 103.846 716.554 105.16C716.806 107.752 717.346 109.534 718.48 109.534C719.344 109.534 720.046 107.41 720.388 105.988L722.206 108.166C721 111.316 719.884 112.396 718.444 112.396C716.446 112.396 714.736 110.632 714.232 105.808C714.052 104.152 714.034 102.028 714.034 100.93C714.034 100.444 714.016 99.67 713.89 99.112L716.662 99.148ZM725.662 99.544C727.372 101.614 728.758 106.114 728.956 108.868L726.58 109.804C726.31 106.888 725.338 102.532 723.376 100.3L725.662 99.544Z" fill="white"/>
<path d="M804.972 107.14H821.028V108.94H804.972V107.14ZM805.062 97.942H812.352V99.562H805.062V97.942ZM812.766 97.438H819.624V99.256H812.766V97.438ZM805.35 100.678H812.118V102.298H805.35V100.678ZM814.314 107.95C815.322 110.308 817.554 111.352 821.55 111.586C821.064 112.072 820.506 113.008 820.236 113.638C815.808 113.134 813.648 111.604 812.316 108.22L814.314 107.95ZM818.85 97.438H820.902C820.902 97.438 820.902 97.996 820.884 98.23C820.722 102.586 820.524 104.314 820.056 104.908C819.714 105.376 819.336 105.538 818.796 105.61C818.346 105.682 817.608 105.7 816.798 105.682C816.762 105.088 816.546 104.278 816.24 103.756C816.87 103.828 817.446 103.828 817.734 103.828C817.986 103.828 818.13 103.792 818.292 103.594C818.58 103.252 818.724 101.776 818.85 97.762V97.438ZM804.738 104.08C806.682 103.918 809.616 103.594 812.388 103.306L812.442 104.962C809.76 105.304 806.97 105.628 804.918 105.862L804.738 104.08ZM814.89 98.068H816.906C816.744 101.722 816.276 104.368 813.342 105.952C813.108 105.484 812.568 104.782 812.136 104.422C814.53 103.18 814.782 101.074 814.89 98.068ZM807.816 96.718H809.814V104.17L807.816 104.404V96.718ZM811.74 106.078H813.936V107.824C813.936 110.074 812.784 112.648 805.746 113.656C805.494 113.134 804.918 112.324 804.504 111.838C810.786 110.992 811.74 109.228 811.74 107.752V106.078ZM830.874 104.872L832.602 103.99C833.538 105.232 834.564 106.906 834.96 108.058L833.07 109.03C832.746 107.914 831.792 106.168 830.874 104.872ZM831.468 99.778H837.93V101.812H831.468V99.778ZM837.012 99.778H839.1C839.1 99.778 839.1 100.498 839.082 100.768C838.812 108.706 838.578 111.568 837.822 112.522C837.318 113.206 836.832 113.404 836.076 113.53C835.41 113.62 834.312 113.62 833.25 113.566C833.214 112.954 832.926 112.018 832.53 111.406C833.664 111.496 834.708 111.496 835.176 111.496C835.536 111.496 835.752 111.442 835.95 111.19C836.544 110.578 836.796 107.536 837.012 100.21V99.778ZM831.576 96.7L833.808 97.186C833.052 99.868 831.81 102.514 830.442 104.152C830.01 103.792 829.056 103.144 828.516 102.838C829.884 101.416 830.982 99.058 831.576 96.7ZM825.24 96.736L827.148 97.402C826.41 98.806 825.564 100.408 824.862 101.398L823.404 100.804C824.052 99.724 824.826 97.996 825.24 96.736ZM827.4 98.86L829.218 99.616C827.886 101.686 826.122 104.188 824.736 105.718L823.422 105.052C824.808 103.432 826.446 100.786 827.4 98.86ZM822.468 101.002L823.476 99.508C824.448 100.336 825.564 101.488 826.032 102.28L824.934 103.972C824.484 103.108 823.386 101.866 822.468 101.002ZM826.95 103.198L828.48 102.532C829.2 103.738 829.92 105.304 830.154 106.348L828.516 107.104C828.3 106.078 827.634 104.44 826.95 103.198ZM822.45 104.656C824.124 104.602 826.608 104.494 829.02 104.368V106.078C826.752 106.258 824.412 106.42 822.63 106.528L822.45 104.656ZM827.274 107.716L828.858 107.194C829.326 108.274 829.812 109.678 830.028 110.596L828.336 111.208C828.174 110.272 827.706 108.814 827.274 107.716ZM823.224 107.302L825.006 107.608C824.826 109.336 824.43 111.136 823.908 112.288C823.53 112.054 822.72 111.676 822.27 111.496C822.792 110.434 823.08 108.832 823.224 107.302ZM825.312 105.61H827.238V113.638H825.312V105.61ZM845.4 102.874C846.66 102.874 847.686 103.9 847.686 105.16C847.686 106.438 846.66 107.464 845.4 107.464C844.122 107.464 843.096 106.438 843.096 105.16C843.096 103.9 844.122 102.874 845.4 102.874ZM865.794 96.826L866.892 98.14C864.516 98.572 861.06 98.788 858.198 98.824C858.144 98.446 857.964 97.852 857.802 97.492C860.574 97.42 863.85 97.186 865.794 96.826ZM856.902 99.454H867.81V100.966H856.902V99.454ZM857.496 101.776H867.216V103.27H857.496V101.776ZM861.15 97.906H863.22V102.424H861.15V97.906ZM855.696 96.718L857.676 97.456C856.398 99.13 854.364 100.804 852.618 101.812C852.258 101.398 851.52 100.606 851.052 100.246C852.798 99.436 854.634 98.104 855.696 96.718ZM856.02 107.014V107.752H863.796V107.014H856.02ZM856.02 108.904V109.642H863.796V108.904H856.02ZM856.02 105.142V105.862H863.796V105.142H856.02ZM853.914 103.918H865.992V110.866H853.914V103.918ZM860.79 111.73L862.644 110.704C864.516 111.298 866.73 112.108 868.008 112.648L865.398 113.62C864.408 113.098 862.59 112.324 860.79 111.73ZM856.83 110.65L858.756 111.532C857.28 112.414 854.958 113.224 853.122 113.692C852.762 113.26 852.024 112.486 851.556 112.126C853.464 111.82 855.606 111.28 856.83 110.65ZM854.058 99.94L855.39 98.59L856.092 98.788V103.396H854.058V99.94ZM872.202 96.808H874.2V113.584H872.202V96.808ZM869.484 102.712H876.864V104.728H869.484V102.712ZM871.824 103.792L873.012 104.368C872.436 106.78 871.32 109.912 870.132 111.64C869.934 110.974 869.466 110.02 869.142 109.408C870.222 108.076 871.32 105.574 871.824 103.792ZM874.164 104.836C874.686 105.304 876.432 107.392 876.828 107.896L875.496 109.588C875.028 108.562 873.822 106.564 873.174 105.682L874.164 104.836ZM869.448 98.194L870.96 97.798C871.428 99.112 871.788 100.822 871.878 101.956L870.258 102.388C870.222 101.254 869.88 99.508 869.448 98.194ZM875.388 97.708L877.206 98.104C876.738 99.562 876.198 101.272 875.748 102.334L874.398 101.956C874.758 100.804 875.19 98.986 875.388 97.708ZM882.192 96.7H884.226V113.602H882.192V96.7ZM876.81 107.968L886.062 106.312L886.386 108.31L877.152 109.984L876.81 107.968ZM877.836 99.166L878.898 97.69C879.906 98.302 881.184 99.202 881.778 99.868L880.644 101.506C880.104 100.804 878.844 99.814 877.836 99.166ZM877.026 103.702L878.034 102.154C879.078 102.712 880.428 103.576 881.076 104.242L879.996 105.952C879.384 105.286 878.07 104.314 877.026 103.702ZM896.862 107.698L898.068 106.33C899.382 106.816 900.948 107.662 901.812 108.31L900.57 109.804C899.724 109.12 898.14 108.202 896.862 107.698ZM894.9 110.902L896.16 109.39C898.5 110.02 901.29 111.19 902.964 112.09L901.704 113.782C900.12 112.792 897.258 111.586 894.9 110.902ZM897.132 96.718L899.238 97.078C898.248 99.292 896.862 101.506 894.684 103.306C894.36 102.856 893.676 102.19 893.226 101.902C895.17 100.408 896.466 98.41 897.132 96.718ZM897.474 98.428H901.938V100.282H896.556L897.474 98.428ZM901.362 98.428H901.758L902.118 98.356L903.45 99.094C901.848 103.126 898.536 105.97 895.026 107.428C894.774 106.924 894.126 106.078 893.712 105.718C897.078 104.494 900.138 102.01 901.362 98.806V98.428ZM897.258 99.85C898.644 102.442 901.398 104.728 904.566 105.772C904.116 106.186 903.486 106.996 903.18 107.536C899.904 106.222 897.186 103.612 895.548 100.462L897.258 99.85ZM890.04 96.736L891.912 97.438C891.174 98.806 890.346 100.408 889.644 101.416L888.204 100.786C888.852 99.724 889.626 97.996 890.04 96.736ZM892.11 98.86L893.856 99.652C892.56 101.722 890.796 104.224 889.428 105.79L888.186 105.088C889.518 103.45 891.174 100.804 892.11 98.86ZM887.268 101.002L888.294 99.526C889.248 100.354 890.364 101.488 890.832 102.316L889.716 103.99C889.284 103.126 888.186 101.866 887.268 101.002ZM891.57 103.162L892.992 102.568C893.694 103.774 894.378 105.34 894.576 106.366L893.046 107.05C892.866 106.024 892.236 104.386 891.57 103.162ZM887.25 104.656C888.906 104.602 891.336 104.512 893.712 104.404L893.694 106.114C891.48 106.276 889.176 106.42 887.43 106.546L887.25 104.656ZM891.966 107.644L893.478 107.158C893.928 108.184 894.396 109.534 894.594 110.434L893.01 110.992C892.83 110.092 892.362 108.706 891.966 107.644ZM888.024 107.302L889.806 107.608C889.626 109.336 889.23 111.136 888.708 112.288C888.33 112.054 887.52 111.676 887.07 111.496C887.592 110.434 887.88 108.832 888.024 107.302ZM890.04 105.61H891.93V113.638H890.04V105.61ZM912.756 102.874H915.042V111.118C915.042 112.342 914.736 112.936 913.836 113.26C912.954 113.584 911.658 113.62 909.93 113.62C909.804 112.99 909.39 112.018 909.048 111.424C910.326 111.478 911.802 111.478 912.216 111.478C912.612 111.478 912.756 111.37 912.756 111.064V102.874ZM906.6 97.978H919.182V100.102H906.6V97.978ZM918.372 97.978H918.948L919.47 97.834L921.162 99.094C919.542 101.074 917.166 103.36 914.952 104.746C914.61 104.278 913.908 103.558 913.476 103.216C915.348 102.028 917.472 99.868 918.372 98.5V97.978ZM925.554 97.798H938.118V113.386H935.796V99.976H927.786V113.404H925.554V97.798ZM927.084 103.846H936.768V105.988H927.084V103.846ZM927.066 110.056H936.768V112.234H927.066V110.056Z" fill="white"/>
<path d="M991.972 107.14H1008.03V108.94H991.972V107.14ZM992.062 97.942H999.352V99.562H992.062V97.942ZM999.766 97.438H1006.62V99.256H999.766V97.438ZM992.35 100.678H999.118V102.298H992.35V100.678ZM1001.31 107.95C1002.32 110.308 1004.55 111.352 1008.55 111.586C1008.06 112.072 1007.51 113.008 1007.24 113.638C1002.81 113.134 1000.65 111.604 999.316 108.22L1001.31 107.95ZM1005.85 97.438H1007.9C1007.9 97.438 1007.9 97.996 1007.88 98.23C1007.72 102.586 1007.52 104.314 1007.06 104.908C1006.71 105.376 1006.34 105.538 1005.8 105.61C1005.35 105.682 1004.61 105.7 1003.8 105.682C1003.76 105.088 1003.55 104.278 1003.24 103.756C1003.87 103.828 1004.45 103.828 1004.73 103.828C1004.99 103.828 1005.13 103.792 1005.29 103.594C1005.58 103.252 1005.72 101.776 1005.85 97.762V97.438ZM991.738 104.08C993.682 103.918 996.616 103.594 999.388 103.306L999.442 104.962C996.76 105.304 993.97 105.628 991.918 105.862L991.738 104.08ZM1001.89 98.068H1003.91C1003.74 101.722 1003.28 104.368 1000.34 105.952C1000.11 105.484 999.568 104.782 999.136 104.422C1001.53 103.18 1001.78 101.074 1001.89 98.068ZM994.816 96.718H996.814V104.17L994.816 104.404V96.718ZM998.74 106.078H1000.94V107.824C1000.94 110.074 999.784 112.648 992.746 113.656C992.494 113.134 991.918 112.324 991.504 111.838C997.786 110.992 998.74 109.228 998.74 107.752V106.078ZM1017.87 104.872L1019.6 103.99C1020.54 105.232 1021.56 106.906 1021.96 108.058L1020.07 109.03C1019.75 107.914 1018.79 106.168 1017.87 104.872ZM1018.47 99.778H1024.93V101.812H1018.47V99.778ZM1024.01 99.778H1026.1C1026.1 99.778 1026.1 100.498 1026.08 100.768C1025.81 108.706 1025.58 111.568 1024.82 112.522C1024.32 113.206 1023.83 113.404 1023.08 113.53C1022.41 113.62 1021.31 113.62 1020.25 113.566C1020.21 112.954 1019.93 112.018 1019.53 111.406C1020.66 111.496 1021.71 111.496 1022.18 111.496C1022.54 111.496 1022.75 111.442 1022.95 111.19C1023.54 110.578 1023.8 107.536 1024.01 100.21V99.778ZM1018.58 96.7L1020.81 97.186C1020.05 99.868 1018.81 102.514 1017.44 104.152C1017.01 103.792 1016.06 103.144 1015.52 102.838C1016.88 101.416 1017.98 99.058 1018.58 96.7ZM1012.24 96.736L1014.15 97.402C1013.41 98.806 1012.56 100.408 1011.86 101.398L1010.4 100.804C1011.05 99.724 1011.83 97.996 1012.24 96.736ZM1014.4 98.86L1016.22 99.616C1014.89 101.686 1013.12 104.188 1011.74 105.718L1010.42 105.052C1011.81 103.432 1013.45 100.786 1014.4 98.86ZM1009.47 101.002L1010.48 99.508C1011.45 100.336 1012.56 101.488 1013.03 102.28L1011.93 103.972C1011.48 103.108 1010.39 101.866 1009.47 101.002ZM1013.95 103.198L1015.48 102.532C1016.2 103.738 1016.92 105.304 1017.15 106.348L1015.52 107.104C1015.3 106.078 1014.63 104.44 1013.95 103.198ZM1009.45 104.656C1011.12 104.602 1013.61 104.494 1016.02 104.368V106.078C1013.75 106.258 1011.41 106.42 1009.63 106.528L1009.45 104.656ZM1014.27 107.716L1015.86 107.194C1016.33 108.274 1016.81 109.678 1017.03 110.596L1015.34 111.208C1015.17 110.272 1014.71 108.814 1014.27 107.716ZM1010.22 107.302L1012.01 107.608C1011.83 109.336 1011.43 111.136 1010.91 112.288C1010.53 112.054 1009.72 111.676 1009.27 111.496C1009.79 110.434 1010.08 108.832 1010.22 107.302ZM1012.31 105.61H1014.24V113.638H1012.31V105.61ZM1032.4 102.874C1033.66 102.874 1034.69 103.9 1034.69 105.16C1034.69 106.438 1033.66 107.464 1032.4 107.464C1031.12 107.464 1030.1 106.438 1030.1 105.16C1030.1 103.9 1031.12 102.874 1032.4 102.874ZM1052.79 96.826L1053.89 98.14C1051.52 98.572 1048.06 98.788 1045.2 98.824C1045.14 98.446 1044.96 97.852 1044.8 97.492C1047.57 97.42 1050.85 97.186 1052.79 96.826ZM1043.9 99.454H1054.81V100.966H1043.9V99.454ZM1044.5 101.776H1054.22V103.27H1044.5V101.776ZM1048.15 97.906H1050.22V102.424H1048.15V97.906ZM1042.7 96.718L1044.68 97.456C1043.4 99.13 1041.36 100.804 1039.62 101.812C1039.26 101.398 1038.52 100.606 1038.05 100.246C1039.8 99.436 1041.63 98.104 1042.7 96.718ZM1043.02 107.014V107.752H1050.8V107.014H1043.02ZM1043.02 108.904V109.642H1050.8V108.904H1043.02ZM1043.02 105.142V105.862H1050.8V105.142H1043.02ZM1040.91 103.918H1052.99V110.866H1040.91V103.918ZM1047.79 111.73L1049.64 110.704C1051.52 111.298 1053.73 112.108 1055.01 112.648L1052.4 113.62C1051.41 113.098 1049.59 112.324 1047.79 111.73ZM1043.83 110.65L1045.76 111.532C1044.28 112.414 1041.96 113.224 1040.12 113.692C1039.76 113.26 1039.02 112.486 1038.56 112.126C1040.46 111.82 1042.61 111.28 1043.83 110.65ZM1041.06 99.94L1042.39 98.59L1043.09 98.788V103.396H1041.06V99.94ZM1059.2 96.808H1061.2V113.584H1059.2V96.808ZM1056.48 102.712H1063.86V104.728H1056.48V102.712ZM1058.82 103.792L1060.01 104.368C1059.44 106.78 1058.32 109.912 1057.13 111.64C1056.93 110.974 1056.47 110.02 1056.14 109.408C1057.22 108.076 1058.32 105.574 1058.82 103.792ZM1061.16 104.836C1061.69 105.304 1063.43 107.392 1063.83 107.896L1062.5 109.588C1062.03 108.562 1060.82 106.564 1060.17 105.682L1061.16 104.836ZM1056.45 98.194L1057.96 97.798C1058.43 99.112 1058.79 100.822 1058.88 101.956L1057.26 102.388C1057.22 101.254 1056.88 99.508 1056.45 98.194ZM1062.39 97.708L1064.21 98.104C1063.74 99.562 1063.2 101.272 1062.75 102.334L1061.4 101.956C1061.76 100.804 1062.19 98.986 1062.39 97.708ZM1069.19 96.7H1071.23V113.602H1069.19V96.7ZM1063.81 107.968L1073.06 106.312L1073.39 108.31L1064.15 109.984L1063.81 107.968ZM1064.84 99.166L1065.9 97.69C1066.91 98.302 1068.18 99.202 1068.78 99.868L1067.64 101.506C1067.1 100.804 1065.84 99.814 1064.84 99.166ZM1064.03 103.702L1065.03 102.154C1066.08 102.712 1067.43 103.576 1068.08 104.242L1067 105.952C1066.38 105.286 1065.07 104.314 1064.03 103.702ZM1083.86 107.698L1085.07 106.33C1086.38 106.816 1087.95 107.662 1088.81 108.31L1087.57 109.804C1086.72 109.12 1085.14 108.202 1083.86 107.698ZM1081.9 110.902L1083.16 109.39C1085.5 110.02 1088.29 111.19 1089.96 112.09L1088.7 113.782C1087.12 112.792 1084.26 111.586 1081.9 110.902ZM1084.13 96.718L1086.24 97.078C1085.25 99.292 1083.86 101.506 1081.68 103.306C1081.36 102.856 1080.68 102.19 1080.23 101.902C1082.17 100.408 1083.47 98.41 1084.13 96.718ZM1084.47 98.428H1088.94V100.282H1083.56L1084.47 98.428ZM1088.36 98.428H1088.76L1089.12 98.356L1090.45 99.094C1088.85 103.126 1085.54 105.97 1082.03 107.428C1081.77 106.924 1081.13 106.078 1080.71 105.718C1084.08 104.494 1087.14 102.01 1088.36 98.806V98.428ZM1084.26 99.85C1085.64 102.442 1088.4 104.728 1091.57 105.772C1091.12 106.186 1090.49 106.996 1090.18 107.536C1086.9 106.222 1084.19 103.612 1082.55 100.462L1084.26 99.85ZM1077.04 96.736L1078.91 97.438C1078.17 98.806 1077.35 100.408 1076.64 101.416L1075.2 100.786C1075.85 99.724 1076.63 97.996 1077.04 96.736ZM1079.11 98.86L1080.86 99.652C1079.56 101.722 1077.8 104.224 1076.43 105.79L1075.19 105.088C1076.52 103.45 1078.17 100.804 1079.11 98.86ZM1074.27 101.002L1075.29 99.526C1076.25 100.354 1077.36 101.488 1077.83 102.316L1076.72 103.99C1076.28 103.126 1075.19 101.866 1074.27 101.002ZM1078.57 103.162L1079.99 102.568C1080.69 103.774 1081.38 105.34 1081.58 106.366L1080.05 107.05C1079.87 106.024 1079.24 104.386 1078.57 103.162ZM1074.25 104.656C1075.91 104.602 1078.34 104.512 1080.71 104.404L1080.69 106.114C1078.48 106.276 1076.18 106.42 1074.43 106.546L1074.25 104.656ZM1078.97 107.644L1080.48 107.158C1080.93 108.184 1081.4 109.534 1081.59 110.434L1080.01 110.992C1079.83 110.092 1079.36 108.706 1078.97 107.644ZM1075.02 107.302L1076.81 107.608C1076.63 109.336 1076.23 111.136 1075.71 112.288C1075.33 112.054 1074.52 111.676 1074.07 111.496C1074.59 110.434 1074.88 108.832 1075.02 107.302ZM1077.04 105.61H1078.93V113.638H1077.04V105.61ZM1099.76 102.874H1102.04V111.118C1102.04 112.342 1101.74 112.936 1100.84 113.26C1099.95 113.584 1098.66 113.62 1096.93 113.62C1096.8 112.99 1096.39 112.018 1096.05 111.424C1097.33 111.478 1098.8 111.478 1099.22 111.478C1099.61 111.478 1099.76 111.37 1099.76 111.064V102.874ZM1093.6 97.978H1106.18V100.102H1093.6V97.978ZM1105.37 97.978H1105.95L1106.47 97.834L1108.16 99.094C1106.54 101.074 1104.17 103.36 1101.95 104.746C1101.61 104.278 1100.91 103.558 1100.48 103.216C1102.35 102.028 1104.47 99.868 1105.37 98.5V97.978ZM1112.55 97.798H1125.12V113.386H1122.8V99.976H1114.79V113.404H1112.55V97.798ZM1114.08 103.846H1123.77V105.988H1114.08V103.846ZM1114.07 110.056H1123.77V112.234H1114.07V110.056Z" fill="white"/>
<rect x="600" y="189" width="526" height="51" fill="#D9D9D9"/>
<path d="M579.431 215.09C579.174 214.738 579.174 214.262 579.431 213.91L603.442 181.035C604.013 180.253 605.25 180.657 605.25 181.625L605.25 247.375C605.25 248.343 604.013 248.747 603.442 247.965L579.431 215.09Z" fill="#D9D9D9"/>
<path d="M1149.57 213.91C1149.83 214.262 1149.83 214.738 1149.57 215.09L1125.56 247.965C1124.99 248.747 1123.75 248.343 1123.75 247.375L1123.75 181.625C1123.75 180.657 1124.99 180.253 1125.56 181.035L1149.57 213.91Z" fill="#D9D9D9"/>
<path d="M694.866 206.736H697.08V209.31H694.866V206.736ZM688.368 208.14H703.686V212.208H701.49V210.102H690.474V212.208H688.368V208.14ZM691.104 211.254H700.824V213.09H691.104V211.254ZM692.868 214.458L694.524 213.486C698.772 216.438 698.736 221.514 696.81 222.9C696.126 223.494 695.55 223.656 694.596 223.656C694.146 223.674 693.606 223.656 693.066 223.62C693.03 223.026 692.832 222.162 692.454 221.55C693.12 221.622 693.714 221.64 694.182 221.64C694.632 221.64 694.974 221.586 695.28 221.262C696.306 220.47 696.306 216.906 692.868 214.458ZM695.712 211.722L697.494 212.46C695.586 214.404 692.31 215.79 689.304 216.582C689.106 216.168 688.548 215.304 688.206 214.908C691.068 214.332 694.146 213.216 695.712 211.722ZM694.308 215.304L695.694 216.276C694.2 217.428 691.554 218.76 689.538 219.462C689.304 218.994 688.854 218.256 688.458 217.824C690.42 217.356 693.03 216.276 694.308 215.304ZM695.766 217.014L697.242 218.112C695.316 219.948 691.806 221.856 688.944 222.81C688.692 222.27 688.224 221.496 687.81 221.028C690.654 220.326 694.092 218.634 695.766 217.014ZM698.502 212.028C699.366 215.808 701.22 219.03 704.406 220.452C703.92 220.884 703.236 221.748 702.912 222.342C699.51 220.524 697.71 216.924 696.684 212.388L698.502 212.028ZM702.012 213.198L703.704 214.656C702.462 215.592 700.896 216.6 699.726 217.194L698.34 215.898C699.474 215.25 701.076 214.098 702.012 213.198ZM719.994 206.826L721.092 208.14C718.716 208.572 715.26 208.788 712.398 208.824C712.344 208.446 712.164 207.852 712.002 207.492C714.774 207.42 718.05 207.186 719.994 206.826ZM711.102 209.454H722.01V210.966H711.102V209.454ZM711.696 211.776H721.416V213.27H711.696V211.776ZM715.35 207.906H717.42V212.424H715.35V207.906ZM709.896 206.718L711.876 207.456C710.598 209.13 708.564 210.804 706.818 211.812C706.458 211.398 705.72 210.606 705.252 210.246C706.998 209.436 708.834 208.104 709.896 206.718ZM710.22 217.014V217.752H717.996V217.014H710.22ZM710.22 218.904V219.642H717.996V218.904H710.22ZM710.22 215.142V215.862H717.996V215.142H710.22ZM708.114 213.918H720.192V220.866H708.114V213.918ZM714.99 221.73L716.844 220.704C718.716 221.298 720.93 222.108 722.208 222.648L719.598 223.62C718.608 223.098 716.79 222.324 714.99 221.73ZM711.03 220.65L712.956 221.532C711.48 222.414 709.158 223.224 707.322 223.692C706.962 223.26 706.224 222.486 705.756 222.126C707.664 221.82 709.806 221.28 711.03 220.65ZM708.258 209.94L709.59 208.59L710.292 208.788V213.396H708.258V209.94ZM733.638 209.67C733.386 211.506 733.026 213.612 732.396 215.736C731.316 219.372 729.768 221.604 727.806 221.604C725.79 221.604 724.134 219.39 724.134 216.348C724.134 212.208 727.752 208.644 732.414 208.644C736.86 208.644 739.686 211.74 739.686 215.682C739.686 219.462 737.364 222.144 732.828 222.846L731.46 220.722C732.162 220.632 732.666 220.542 733.152 220.434C735.438 219.876 737.238 218.238 737.238 215.592C737.238 212.766 735.474 210.75 732.36 210.75C728.544 210.75 726.456 213.864 726.456 216.132C726.456 217.95 727.176 218.832 727.86 218.832C728.634 218.832 729.318 217.68 730.074 215.25C730.596 213.558 730.992 211.488 731.172 209.598L733.638 209.67ZM749.298 207.798C749.19 208.266 749.082 208.842 748.974 209.292C748.812 210.102 748.578 211.218 748.398 212.136C747.804 214.674 746.346 219.804 744.474 222.846L742.116 221.91C744.258 219.03 745.608 214.278 746.112 212.01C746.454 210.39 746.652 208.86 746.634 207.51L749.298 207.798ZM755.508 209.472C756.606 211.038 758.118 214.458 758.676 216.186L756.39 217.248C755.922 215.232 754.644 211.992 753.348 210.39L755.508 209.472ZM742.008 211.488C742.656 211.524 743.268 211.506 743.934 211.488C745.374 211.452 748.776 211.056 750.126 211.056C752.016 211.056 753.366 211.902 753.366 214.512C753.366 216.636 753.114 219.552 752.358 221.1C751.746 222.36 750.756 222.756 749.406 222.756C748.704 222.756 747.858 222.648 747.228 222.504L746.85 220.128C747.552 220.326 748.578 220.506 749.046 220.506C749.658 220.506 750.108 220.326 750.396 219.732C750.9 218.724 751.134 216.528 751.134 214.764C751.134 213.324 750.504 213.108 749.388 213.108C748.308 213.108 745.212 213.504 744.222 213.63C743.7 213.702 742.764 213.828 742.224 213.918L742.008 211.488ZM767.298 207.798C767.19 208.266 767.082 208.842 766.974 209.292C766.812 210.102 766.578 211.218 766.398 212.136C765.804 214.674 764.346 219.804 762.474 222.846L760.116 221.91C762.258 219.03 763.608 214.278 764.112 212.01C764.454 210.39 764.652 208.86 764.634 207.51L767.298 207.798ZM773.508 209.472C774.606 211.038 776.118 214.458 776.676 216.186L774.39 217.248C773.922 215.232 772.644 211.992 771.348 210.39L773.508 209.472ZM760.008 211.488C760.656 211.524 761.268 211.506 761.934 211.488C763.374 211.452 766.776 211.056 768.126 211.056C770.016 211.056 771.366 211.902 771.366 214.512C771.366 216.636 771.114 219.552 770.358 221.1C769.746 222.36 768.756 222.756 767.406 222.756C766.704 222.756 765.858 222.648 765.228 222.504L764.85 220.128C765.552 220.326 766.578 220.506 767.046 220.506C767.658 220.506 768.108 220.326 768.396 219.732C768.9 218.724 769.134 216.528 769.134 214.764C769.134 213.324 768.504 213.108 767.388 213.108C766.308 213.108 763.212 213.504 762.222 213.63C761.7 213.702 760.764 213.828 760.224 213.918L760.008 211.488ZM780.96 208.302C781.464 208.356 782.076 208.392 782.58 208.392C783.552 208.392 787.386 208.302 788.412 208.212C789.168 208.158 789.582 208.086 789.798 208.014L790.95 209.634C790.536 209.904 790.104 210.156 789.708 210.462C788.736 211.146 786.846 212.73 785.694 213.63C786.306 213.468 786.846 213.432 787.404 213.432C790.464 213.432 792.786 215.34 792.786 217.95C792.786 220.794 790.626 223.044 786.27 223.044C783.768 223.044 781.878 221.91 781.878 220.092C781.878 218.634 783.21 217.302 785.118 217.302C787.584 217.302 788.952 218.958 789.006 220.938L786.9 221.208C786.864 219.912 786.18 219.012 785.118 219.012C784.452 219.012 784.002 219.426 784.002 219.894C784.002 220.56 784.74 221.01 785.838 221.01C788.88 221.01 790.428 219.858 790.428 217.932C790.428 216.294 788.808 215.196 786.702 215.196C783.93 215.196 782.148 216.672 780.222 218.85L778.584 217.158C779.862 216.15 782.04 214.314 783.084 213.432C784.092 212.604 785.982 211.092 786.864 210.3C785.946 210.336 783.462 210.426 782.49 210.498C782.004 210.534 781.446 210.57 781.032 210.642L780.96 208.302ZM806.052 207.528H810.714V209.472H806.052V207.528ZM806.052 211.596H810.714V213.486H806.052V211.596ZM806.052 215.7H810.732V217.626H806.052V215.7ZM809.778 207.528H811.866V221.244C811.866 222.288 811.668 222.882 811.02 223.206C810.39 223.548 809.472 223.602 808.122 223.602C808.068 223.026 807.78 222.09 807.51 221.55C808.284 221.586 809.166 221.586 809.418 221.568C809.688 221.568 809.778 221.478 809.778 221.208V207.528ZM805.17 207.528H807.186V214.134C807.186 216.978 806.952 221.1 805.422 223.656C805.062 223.278 804.18 222.648 803.712 222.432C805.062 220.128 805.17 216.708 805.17 214.134V207.528ZM795.738 208.842H804.558V210.714H795.738V208.842ZM798.096 211.776H802.38V213.432H798.096V211.776ZM798.096 214.584H802.398V216.222H798.096V214.584ZM795.522 217.428H804.432V219.318H795.522V217.428ZM797.16 206.916H799.104V218.112H797.16V206.916ZM801.354 206.916H803.334V218.112H801.354V206.916ZM797.772 219.444L799.806 220.038C799.14 221.37 798.078 222.774 797.124 223.656C796.71 223.296 795.882 222.684 795.378 222.396C796.35 221.658 797.268 220.542 797.772 219.444ZM800.436 220.254L802.074 219.354C802.794 220.146 803.712 221.244 804.126 221.982L802.38 223.008C802.02 222.288 801.156 221.1 800.436 220.254ZM819.516 217.698H824.448V219.246H819.516V217.698ZM819.39 215.034H825.456V221.946H819.39V220.362H823.44V216.618H819.39V215.034ZM818.508 215.034H820.452V222.864H818.508V215.034ZM815.484 209.904H820.002V211.362H815.484V209.904ZM823.836 209.904H828.39V211.362H823.836V209.904ZM827.508 207.402H829.686V221.064C829.686 222.234 829.452 222.864 828.732 223.224C828.012 223.584 826.968 223.62 825.42 223.62C825.33 223.008 825.006 222 824.718 221.424C825.654 221.478 826.752 221.46 827.076 221.46C827.4 221.46 827.508 221.352 827.508 221.046V207.402ZM815.664 207.402H821.352V213.936H815.664V212.388H819.336V208.968H815.664V207.402ZM828.66 207.402V208.968H824.628V212.442H828.66V213.99H822.576V207.402H828.66ZM814.422 207.402H816.564V223.62H814.422V207.402ZM842.934 215.16C842.934 211.326 844.536 208.446 846.48 206.52L848.19 207.294C846.372 209.22 844.968 211.722 844.968 215.16C844.968 218.616 846.372 221.118 848.19 223.044L846.48 223.818C844.536 221.892 842.934 219.012 842.934 215.16ZM851.556 211.344H856.542V212.928H851.556V211.344ZM851.556 214.296H856.542V215.826H851.556V214.296ZM851.556 217.302H856.542V218.904H851.556V217.302ZM859.35 215.268H866.136V217.086H859.35V215.268ZM852.438 208.392H855.282V210.012H852.438V208.392ZM858 207.636H864.678V209.4H858V207.636ZM858 218.706H866.478V220.578H858V218.706ZM861.366 213.648H863.418V223.566H861.366V213.648ZM853.5 212.172H854.94V217.896H853.5V212.172ZM864.102 207.636H866.028C866.028 207.636 866.01 208.086 865.992 208.32C865.902 211.218 865.74 212.46 865.344 212.928C865.056 213.306 864.714 213.45 864.246 213.522C863.85 213.576 863.148 213.594 862.428 213.558C862.392 213.018 862.212 212.298 861.942 211.83C862.518 211.884 862.986 211.902 863.22 211.902C863.454 211.902 863.598 211.866 863.724 211.704C863.922 211.47 864.03 210.498 864.102 207.888V207.636ZM858.99 213.774L860.754 214.116C860.43 215.772 859.836 217.428 859.134 218.49C858.774 218.238 857.982 217.842 857.55 217.644C858.252 216.69 858.738 215.214 858.99 213.774ZM852.006 206.7L853.932 207.114C853.284 209.598 852.168 212.028 850.872 213.558C850.548 213.216 849.774 212.568 849.342 212.28C850.566 210.948 851.52 208.842 852.006 206.7ZM850.764 211.344H852.492V216.114C852.492 218.418 852.258 221.622 850.944 223.656C850.62 223.368 849.846 222.882 849.432 222.702C850.656 220.83 850.764 218.148 850.764 216.114V211.344ZM855.966 211.344H857.73V221.55C857.73 222.396 857.568 222.936 857.028 223.26C856.47 223.566 855.732 223.602 854.634 223.602C854.562 223.098 854.274 222.27 854.022 221.784C854.724 221.82 855.444 221.82 855.66 221.802C855.876 221.802 855.966 221.73 855.966 221.514V211.344ZM860.16 208.23H862.086C861.87 210.858 861.258 212.874 858.576 214.062C858.36 213.612 857.874 212.91 857.442 212.586C859.602 211.704 859.98 210.174 860.16 208.23ZM854.778 208.392H855.192L855.462 208.302L856.686 209.076C856.29 210.21 855.588 211.632 855.03 212.532C854.688 212.28 854.094 211.92 853.716 211.722C854.112 210.894 854.562 209.562 854.778 208.716V208.392ZM875.874 214.872L877.602 213.99C878.538 215.232 879.564 216.906 879.96 218.058L878.07 219.03C877.746 217.914 876.792 216.168 875.874 214.872ZM876.468 209.778H882.93V211.812H876.468V209.778ZM882.012 209.778H884.1C884.1 209.778 884.1 210.498 884.082 210.768C883.812 218.706 883.578 221.568 882.822 222.522C882.318 223.206 881.832 223.404 881.076 223.53C880.41 223.62 879.312 223.62 878.25 223.566C878.214 222.954 877.926 222.018 877.53 221.406C878.664 221.496 879.708 221.496 880.176 221.496C880.536 221.496 880.752 221.442 880.95 221.19C881.544 220.578 881.796 217.536 882.012 210.21V209.778ZM876.576 206.7L878.808 207.186C878.052 209.868 876.81 212.514 875.442 214.152C875.01 213.792 874.056 213.144 873.516 212.838C874.884 211.416 875.982 209.058 876.576 206.7ZM870.24 206.736L872.148 207.402C871.41 208.806 870.564 210.408 869.862 211.398L868.404 210.804C869.052 209.724 869.826 207.996 870.24 206.736ZM872.4 208.86L874.218 209.616C872.886 211.686 871.122 214.188 869.736 215.718L868.422 215.052C869.808 213.432 871.446 210.786 872.4 208.86ZM867.468 211.002L868.476 209.508C869.448 210.336 870.564 211.488 871.032 212.28L869.934 213.972C869.484 213.108 868.386 211.866 867.468 211.002ZM871.95 213.198L873.48 212.532C874.2 213.738 874.92 215.304 875.154 216.348L873.516 217.104C873.3 216.078 872.634 214.44 871.95 213.198ZM867.45 214.656C869.124 214.602 871.608 214.494 874.02 214.368V216.078C871.752 216.258 869.412 216.42 867.63 216.528L867.45 214.656ZM872.274 217.716L873.858 217.194C874.326 218.274 874.812 219.678 875.028 220.596L873.336 221.208C873.174 220.272 872.706 218.814 872.274 217.716ZM868.224 217.302L870.006 217.608C869.826 219.336 869.43 221.136 868.908 222.288C868.53 222.054 867.72 221.676 867.27 221.496C867.792 220.434 868.08 218.832 868.224 217.302ZM870.312 215.61H872.238V223.638H870.312V215.61ZM892.992 215.232H895.242V221.28C895.242 222.396 894.972 222.972 894.126 223.26C893.28 223.566 892.11 223.602 890.562 223.602C890.436 222.99 890.076 222.09 889.77 221.514C890.832 221.568 892.182 221.568 892.542 221.55C892.884 221.532 892.992 221.478 892.992 221.208V215.232ZM887.574 207.726H898.626V209.706H887.574V207.726ZM897.816 207.726H898.392L898.878 207.6L900.426 208.824C898.896 210.336 896.772 212.046 894.846 213.108C894.558 212.676 893.91 212.01 893.55 211.668C895.116 210.786 897.006 209.22 897.816 208.194V207.726ZM885.828 213.594H900.534V215.646H885.828V213.594ZM890.094 212.01L891.174 210.39C893.136 211.056 896.232 212.19 897.798 212.892L896.646 214.746C895.188 214.026 892.164 212.784 890.094 212.01ZM899.814 213.594H900.228L900.606 213.45L902.37 214.206C901.578 215.898 900.498 217.716 899.472 218.922L897.636 217.86C898.392 216.852 899.31 215.268 899.814 213.954V213.594ZM904.044 213.09H919.974V215.106H904.044V213.09ZM907.05 209.058H918.858V211.02H907.05V209.058ZM907.23 220.812H916.986V222.81H907.23V220.812ZM911.298 206.718H913.602V214.314H911.298V206.718ZM906.096 216.402H918.228V223.62H915.906V218.382H908.31V223.674H906.096V216.402ZM906.978 206.754L909.138 207.294C908.382 209.49 907.104 211.686 905.88 213.072C905.43 212.73 904.44 212.172 903.918 211.92C905.214 210.714 906.348 208.716 906.978 206.754ZM932.052 207.528H936.714V209.472H932.052V207.528ZM932.052 211.596H936.714V213.486H932.052V211.596ZM932.052 215.7H936.732V217.626H932.052V215.7ZM935.778 207.528H937.866V221.244C937.866 222.288 937.668 222.882 937.02 223.206C936.39 223.548 935.472 223.602 934.122 223.602C934.068 223.026 933.78 222.09 933.51 221.55C934.284 221.586 935.166 221.586 935.418 221.568C935.688 221.568 935.778 221.478 935.778 221.208V207.528ZM931.17 207.528H933.186V214.134C933.186 216.978 932.952 221.1 931.422 223.656C931.062 223.278 930.18 222.648 929.712 222.432C931.062 220.128 931.17 216.708 931.17 214.134V207.528ZM921.738 208.842H930.558V210.714H921.738V208.842ZM924.096 211.776H928.38V213.432H924.096V211.776ZM924.096 214.584H928.398V216.222H924.096V214.584ZM921.522 217.428H930.432V219.318H921.522V217.428ZM923.16 206.916H925.104V218.112H923.16V206.916ZM927.354 206.916H929.334V218.112H927.354V206.916ZM923.772 219.444L925.806 220.038C925.14 221.37 924.078 222.774 923.124 223.656C922.71 223.296 921.882 222.684 921.378 222.396C922.35 221.658 923.268 220.542 923.772 219.444ZM926.436 220.254L928.074 219.354C928.794 220.146 929.712 221.244 930.126 221.982L928.38 223.008C928.02 222.288 927.156 221.1 926.436 220.254ZM945.516 217.698H950.448V219.246H945.516V217.698ZM945.39 215.034H951.456V221.946H945.39V220.362H949.44V216.618H945.39V215.034ZM944.508 215.034H946.452V222.864H944.508V215.034ZM941.484 209.904H946.002V211.362H941.484V209.904ZM949.836 209.904H954.39V211.362H949.836V209.904ZM953.508 207.402H955.686V221.064C955.686 222.234 955.452 222.864 954.732 223.224C954.012 223.584 952.968 223.62 951.42 223.62C951.33 223.008 951.006 222 950.718 221.424C951.654 221.478 952.752 221.46 953.076 221.46C953.4 221.46 953.508 221.352 953.508 221.046V207.402ZM941.664 207.402H947.352V213.936H941.664V212.388H945.336V208.968H941.664V207.402ZM954.66 207.402V208.968H950.628V212.442H954.66V213.99H948.576V207.402H954.66ZM940.422 207.402H942.564V223.62H940.422V207.402ZM966 212.73C965.046 212.73 964.272 212.01 964.272 211.038C964.272 210.048 965.046 209.328 966 209.328C966.936 209.328 967.71 210.048 967.71 211.038C967.71 212.01 966.936 212.73 966 212.73ZM966 221.316C965.046 221.316 964.272 220.596 964.272 219.624C964.272 218.634 965.046 217.914 966 217.914C966.936 217.914 967.71 218.634 967.71 219.624C967.71 220.596 966.936 221.316 966 221.316ZM976.061 222V220.006L980.721 215.691C981.117 215.308 981.45 214.962 981.718 214.656C981.991 214.349 982.197 214.048 982.338 213.754C982.479 213.456 982.549 213.134 982.549 212.789C982.549 212.406 982.462 212.075 982.287 211.798C982.112 211.517 981.874 211.302 981.571 211.153C981.268 210.999 980.925 210.923 980.542 210.923C980.141 210.923 979.792 211.004 979.494 211.165C979.195 211.327 978.965 211.56 978.803 211.862C978.641 212.165 978.56 212.525 978.56 212.942H975.933C975.933 212.086 976.127 211.342 976.515 210.712C976.903 210.081 977.446 209.593 978.145 209.248C978.844 208.903 979.649 208.73 980.561 208.73C981.499 208.73 982.315 208.896 983.009 209.229C983.708 209.557 984.251 210.013 984.639 210.597C985.027 211.18 985.221 211.849 985.221 212.604C985.221 213.098 985.123 213.586 984.927 214.067C984.735 214.549 984.392 215.084 983.898 215.672C983.403 216.256 982.707 216.957 981.808 217.775L979.896 219.648V219.737H985.393V222H976.061ZM994.582 211.254C994.42 211.65 994.294 211.974 994.168 212.298C993.88 213.126 993.268 214.458 992.89 215.142C992.224 216.294 991.018 217.896 990.172 218.616L988.084 217.392C989.236 216.51 990.19 215.322 990.82 214.35C991.306 213.558 991.612 212.748 991.828 212.028C991.936 211.614 992.026 211.11 992.08 210.732L994.582 211.254ZM992.332 213.468C993.556 213.468 999.442 213.468 1000.29 213.468C1000.68 213.468 1001.4 213.45 1001.87 213.36V215.574C1001.33 215.502 1000.65 215.502 1000.29 215.502C999.442 215.502 993.538 215.502 992.206 215.502L992.332 213.468ZM998.128 214.674C997.984 218.94 996.526 221.892 993.466 223.764L991.234 222.288C991.72 222.072 992.404 221.676 992.854 221.334C994.474 220.002 995.752 218.076 995.86 214.674H998.128ZM1009.18 207.564H1018.18V209.67H1009.18V207.564ZM1009.2 211.866H1018.27V213.918H1009.2V211.866ZM1009.11 216.132H1018.14V218.22H1009.11V216.132ZM1007.7 207.564H1009.92V213.522C1009.92 216.654 1009.43 221.064 1006.39 223.62C1006.07 223.17 1005.18 222.36 1004.72 222.072C1007.45 219.75 1007.7 216.276 1007.7 213.522V207.564ZM1017.17 207.564H1019.46V220.884C1019.46 222.162 1019.15 222.81 1018.32 223.17C1017.46 223.548 1016.18 223.584 1014.31 223.584C1014.18 222.936 1013.77 221.892 1013.41 221.316C1014.69 221.388 1016.18 221.37 1016.61 221.37C1017.03 221.352 1017.17 221.226 1017.17 220.848V207.564ZM1028.39 215.16C1028.39 219.012 1026.78 221.892 1024.84 223.818L1023.13 223.044C1024.95 221.118 1026.35 218.616 1026.35 215.16C1026.35 211.722 1024.95 209.22 1023.13 207.294L1024.84 206.52C1026.78 208.446 1028.39 211.326 1028.39 215.16Z" fill="#EB6321"/>
</g>
<defs>
<clipPath id="clip0_3_829">
<rect width="1159" height="256" fill="white"/>
</clipPath>
</defs>
</svg>
