<svg xmlns="http://www.w3.org/2000/svg" viewBox="0 0 197.48 27.77"><defs><style>.cls-1{fill:#060001;}</style></defs><g id="レイヤー_2" data-name="レイヤー 2"><g id="レイヤー_1-2" data-name="レイヤー 1"><path class="cls-1" d="M39.84,7.85h.81v.46L40.53,9h-1c-.23,0-.35,0-.35.23s.12.23.35.23h.8l-1.15,4.38c0,.23,0,.34.23.34s.23,0,.35-.23l.92-3.57v3.11c0,.46.11.69.46.69s.58-.23.58-.69V10.85l.92,3.1c.11.23.23.35.34.23s.23-.11.23-.34L41.8,9.46H43c.23,0,.35-.11.35-.23S43.18,9,43,9H41.69V7.85H43c.23,0,.35-.11.35-.23A.31.31,0,0,0,43,7.28H41.69V6.47c0-.58-.23-.81-.58-.81s-.46.23-.46.81v.81h-.81Z"/><path class="cls-1" d="M39.84,7.28,40,6.35a.71.71,0,0,0-.35-.69c-.34,0-.57.23-.57.69l-.23,1.5a.62.62,0,0,0,.46.69A.52.52,0,0,0,39.73,8l.11-.12Z"/><path class="cls-1" d="M39.27,10.61l-1-2.3V7.62h.23c.23,0,.35,0,.35-.23s-.12-.23-.35-.23h-.23V6.47c0-.58-.11-.81-.46-.81s-.57.23-.57.81v.69h-.81c-.23,0-.35.12-.35.23s.12.23.35.23h.81V8.2L36,12c-.11.23-.11.34.12.34s.23,0,.34-.23l.7-2.3v3.8H37c-.34,0-.46.11-.46.23s.12.34.46.34h1.27V9.58l.58,1.26c.11.24.23.24.34.24a.36.36,0,0,0,.12-.47"/><path class="cls-1" d="M52.85,6.47c0-.58-.23-.81-.57-.81s-.46.23-.46.81v.92H50.21l-.23-1c-.12-.46-.35-.69-.69-.57s-.47.34-.35.8l.23.81H45.72c-.23,0-.35.12-.35.23s.12.23.35.23h3.57l1.38,6.33h1.72c.23,0,.35-.11.35-.23s-.12-.23-.35-.23h-.8L50.32,7.85h2.53Z"/><path class="cls-1" d="M49.52,13c0-.11-.12-.23-.35-.11L48,13.15V9.81h.46c.23,0,.34,0,.34-.23s-.11-.23-.34-.23H45.72c-.23,0-.35.11-.35.23s.12.23.35.23h1v3.57l-1.15.23c-.23.11-.34.23-.23.34s.12.23.35.23l3.57-.8c.23-.12.23-.23.23-.35"/><path class="cls-1" d="M39.61,17.52l-2.87,1.73c-.35.23-.58.12-.7-.11s-.11-.47.23-.7l3.34-1.84,3.46,1.84c.34.23.46.47.23.7s-.35.34-.69.11Z"/><path class="cls-1" d="M42.38,19.6c.23,0,.34.11.34.23s-.11.23-.34.23H36.73c-.23,0-.34,0-.34-.23s.11-.23.34-.23Z"/><path class="cls-1" d="M43.07,24.2l-1-1.84a.72.72,0,0,0-.92-.46c-.35.23-.35.57-.12,1l.93,1.39H37.54c.35-.81,1.38-2.65,1.61-3.11H43c.23,0,.35-.12.35-.23s-.12-.23-.35-.23H36.27c-.23,0-.34.11-.34.23s.11.23.34.23h1.39c-.35.57-1.16,2.07-1.62,2.88s.69.8,1,.8h5.64c1,0,.23-.92.35-.69"/><path class="cls-1" d="M52.39,19.48c.23,0,.35,0,.35-.23s-.12-.23-.35-.23h-1V17.29c0-.57-.23-.92-.58-.92s-.69.35-.69.92V19h-1c-.24,0-.35.12-.35.23s.11.23.35.23h1v4.95H48.94c-.23,0-.35,0-.35.23s.12.23.35.23h3.34c.23,0,.34-.11.34-.23s-.11-.23-.34-.23h-.92V19.48Z"/><path class="cls-1" d="M46.75,21.32v3.11h-.57c-.23,0-.35,0-.35.23s.12.23.35.23h1.61V21.21l.8,1c.23.12.35.24.47.12a.36.36,0,0,0,0-.46l-1.5-1.61,1.26-1.61c.24-.35.12-.58-.34-.58h-.69v-.92c0-.58-.12-.81-.46-.81s-.58.23-.58.81v.92h-.92c-.23,0-.34.11-.34.35s.11.23.34.23h2.3l-2.64,3.45c-.12.23-.12.35,0,.46s.23.11.46-.11Z"/><path class="cls-1" d="M14.05,27.77c5.87,0,14.05-5.41,14.16-13.7A13.4,13.4,0,0,0,17.85.25c-1.84-.46-3-.34-3,.81,0,1.38,1.49,1.38,2.42,1.61s8.4,2,8.17,11.86c-.11,5.87-5.87,9-6.56,9.33s-1.5.46-2.07-.35-1-2.07,1.15-2.88,1.38-3.45,0-3.45H10.14c-1.38,0-2.31,2.65,0,3.45s1.61,2.07,1.15,2.88-1.15.69-2,.35S2.77,20.4,2.65,14.53C2.42,4.63,10,2.9,10.83,2.67s2.42-.23,2.42-1.61c0-1.15-1.16-1.27-3-.81A13.34,13.34,0,0,0,0,14.07c.12,8.29,8.18,13.7,14.05,13.7"/><path class="cls-1" d="M21.77,9.12v6.45H16.58V5.09c-.34,0-.57-.12-.92-.12v10.6h-1V3.82a3,3,0,0,1,1,.12c.35,0,.58.11.92.11l1,.35v9.9h1V5a3.77,3.77,0,0,1,1.15.58V14.3h.92v-8a4.66,4.66,0,0,1,1,1A10,10,0,0,1,24.18,14a8,8,0,0,1-.11,1.62H23A7.37,7.37,0,0,0,23.15,14a8.5,8.5,0,0,0-1.38-4.83"/><path class="cls-1" d="M6.8,10.61H5.42A7.46,7.46,0,0,1,6.8,8.31Zm5.75-6.79V14.3h-.69V3.94c-.46.11-.8.23-1.15.34a14.1,14.1,0,0,0-2.88,1.5V5.09L6.8,6V6.7A10.19,10.19,0,0,0,3.8,14a7.37,7.37,0,0,0,.12,1.62H5A7.37,7.37,0,0,1,4.84,14a6.37,6.37,0,0,1,.23-2.07H6.8v3.69h1V11.88h.93v3.69h1v-5h-2V7.16a9.5,9.5,0,0,1,2.88-1.84V15.57h2.88V3.71c-.34,0-.69.11-1,.11"/><path class="cls-1" d="M167.08,6.58c0-.46-.35-.69-.81-.69h-5.75a.81.81,0,0,0,0,1.62h4.25l-1.72,2.87-1-.8a.77.77,0,0,0-1.15.11.78.78,0,0,0,.12,1.15l3.1,2.31a.79.79,0,1,0,.93-1.27l-.58-.46,2.19-3.91a2.32,2.32,0,0,0,.46-.93"/><path class="cls-1" d="M134.61,25a1.38,1.38,0,0,0,1.49-1.61V11.31a1.67,1.67,0,0,0-3.34,0V23.4H129.2V7.51a1.73,1.73,0,1,0-3.46,0V23.4h-3.8V11.31a1.57,1.57,0,0,0-1.61-1.62,1.75,1.75,0,0,0-1.61.92V23.4a1.26,1.26,0,0,0,1.38,1.49Z"/><path class="cls-1" d="M114.69,23.28h-2.08V9.35c0-.69-1.38-1.27-1.72-1.27H107.2V7.74a1.53,1.53,0,0,0-1.15-2c-.92-.23-2.07.11-2.19.92a5.55,5.55,0,0,1-.34,1.38H99a1,1,0,0,0-.92.92.89.89,0,0,0,.92.81h4.14c-.34,1.27-.69,3-1.15,4.72l-1.38-1a.82.82,0,0,0-1,1.27l2.08,1.5c-.93,3.8-1.73,7.37-1.73,7.37H98.8a.64.64,0,0,0-.69.57.66.66,0,0,0,.69.69h3c1.5,0,1.73-.92,1.73-.92l1.27-5.53,1.72,1.16a.8.8,0,0,0,1.15-.23.92.92,0,0,0-.23-1.16l-2.18-1.49,1.49-6.91h1.84V23.28c0,.81.23,1.61,1,1.61h5.07a.81.81,0,1,0,0-1.61"/><path class="cls-1" d="M155.79,23.17h-6.1V9.12h4a.89.89,0,0,0,.92-.81.91.91,0,0,0-.92-.92h-11.4a.85.85,0,0,0-.92.92.83.83,0,0,0,.92.81h3.8V23.17H140a.9.9,0,0,0-.92.92.88.88,0,0,0,.92.8h15.77a.88.88,0,0,0,.92-.8.9.9,0,0,0-.92-.92"/><path class="cls-1" d="M171.22,9h2.08l-1.16,1ZM176.29,14h-.81l-2.3-2.64L175.83,9h.34a.79.79,0,0,0,.81-.8.79.79,0,0,0-.81-.81h-4.83a.82.82,0,0,0-.23-1.27.85.85,0,0,0-1.27.23l-3.22,4.73a.83.83,0,0,0,.23,1.26,1,1,0,0,0,1.26-.23l1.62-2.3a12.24,12.24,0,0,1,1.15,1.27l-3.8,3.33-.12.12a1.13,1.13,0,0,0-1.15-1l-.11-.11h-5.07a1,1,0,0,0-.92.92,1,1,0,0,0,.92.81h1.27l-2.08,5.52a.7.7,0,0,0,.46,1,.73.73,0,0,0,1-.46l1-2.77v4.84h-1a.79.79,0,0,0-.81.81.79.79,0,0,0,.81.8h2.42a.78.78,0,0,0,.8-.8V18.67c.35.35.93,1,1.62,1,.92,0,.92-1.15.92-1.73v-2.3a.72.72,0,0,0,1,0l3.8-3.34c1.16,1.27,2.08,2.42,2.19,2.54a.8.8,0,0,0,.81.34h1.38c.46,0,.69-.23.69-.58a.61.61,0,0,0-.69-.69"/><path class="cls-1" d="M175.48,16.6H172.6l.24-.46a1.27,1.27,0,1,0-2.42-.8L170,16.6h-2a.79.79,0,0,0-.81.81.79.79,0,0,0,.81.8h1.38l-1.73,5.07h-.23a.79.79,0,0,0-.8.81.78.78,0,0,0,.8.8h1.15c.93,0,1.16-.11,1.62-1.49L172,18.21h2v5.07h-.81a.79.79,0,0,0-.81.81.79.79,0,0,0,.81.8h2.88c.46,0,.81-.46.81-1.26V17.87a1.25,1.25,0,0,0-1.39-1.27"/><path class="cls-1" d="M190.91,14h1.5V23.4a1.52,1.52,0,0,0,1.5,1.49,1.43,1.43,0,0,0,1.38-1.49V14h1.38a.79.79,0,0,0,.81-.8.79.79,0,0,0-.81-.81h-5.76V11.08l3.92-2.77a1.17,1.17,0,0,0,.34-1.72,1.25,1.25,0,0,0-1.72-.35L189,9.35a2.74,2.74,0,0,0-.92,2.3V23.28h-.92a.79.79,0,0,0-.8.81.78.78,0,0,0,.8.8h2.65a1,1,0,0,0,1.15-1.15Z"/><path class="cls-1" d="M118.72,23.4a1.26,1.26,0,0,0,1.38,1.49Z"/><path class="cls-1" d="M93.39,23.17a.42.42,0,0,0-.12-.35l-3.22-5.76a1,1,0,0,0-1.16-.34.82.82,0,0,0-.34,1.15l3.11,5.3H87.4v-7H92a.79.79,0,0,0,.81-.8.83.83,0,0,0-.81-.93H87.4V9.12H93a.79.79,0,0,0,.81-.81A.83.83,0,0,0,93,7.39H79.22a.91.91,0,0,0-.92.92.89.89,0,0,0,.92.81h4.61v5.29H79.68a.85.85,0,0,0-.92.93.82.82,0,0,0,.92.8h4.15v7H78a.91.91,0,0,0-.93.92.89.89,0,0,0,.93.8H93.73a.88.88,0,0,0,.92-.8.9.9,0,0,0-.92-.92Z"/><path class="cls-1" d="M62.41,20.63a.76.76,0,0,0-1-.34l-.46.23v-9h.7a.81.81,0,0,0,0-1.62h-.7V7.28a1,1,0,0,0-1-1,1.06,1.06,0,0,0-1.15,1V9.92H58a.81.81,0,0,0,0,1.62h.69v10l-1,.58a.79.79,0,0,0-.34,1,1,1,0,0,0,1.15.46l3.57-1.85a.8.8,0,0,0,.34-1.15"/><path class="cls-1" d="M72.77,11.65,67.71,8.77V8.66h4.72a.79.79,0,0,0,.8-.81.78.78,0,0,0-.8-.8H68.51l.12-.23a.86.86,0,0,0-.46-1,.77.77,0,0,0-1,.34l-.46.93H63.45a.79.79,0,0,0-.81.8.79.79,0,0,0,.81.81h2.42l-1.5,3.11H63.1a.69.69,0,1,0,0,1.38h1.5A1.68,1.68,0,0,0,66,12.34l1-2.07L72,13a.82.82,0,0,0,1.15-.34.79.79,0,0,0-.35-1"/><path class="cls-1" d="M73.12,13.49H62.87a.81.81,0,0,0,0,1.62h6.91v8.17H69a.79.79,0,0,0-.81.81.78.78,0,0,0,.81.8h2.76c.57,0,.92-.46.92-1.26V15.11h.46a.81.81,0,0,0,0-1.62"/><path class="cls-1" d="M67,21.21H65.41V17.87H67Zm1.61-4.49H63.79a.52.52,0,0,0-.57.46v4.6a.52.52,0,0,0,.57.46h4.84a.53.53,0,0,0,.58-.46v-4.6a.53.53,0,0,0-.58-.46"/><path class="cls-1" d="M186.42,8.54a.89.89,0,0,0,.81-.92.88.88,0,0,0-.81-.81h-5.64a.88.88,0,0,0-.81.81.89.89,0,0,0,.81.92Z"/><path class="cls-1" d="M184.58,15.57H183V12.23h1.61Zm1.38-5h-4.49c-1.5,0-1.38,1.39-1.38,2.31V23.4a1.5,1.5,0,0,0,1.38,1.49A1.52,1.52,0,0,0,183,23.4V17h1.61a1.33,1.33,0,0,0,1.15,1.15c.69,0,1.27-.35,1.27-1.5V11.88c0-.34.23-1.27-1-1.27"/></g></g></svg>